<svg width="9" height="6" viewBox="0 0 9 6" fill="none" xmlns="http://www.w3.org/2000/svg">
<path d="M0.750111 0.624958C0.896144 0.624673 1.03767 0.675532 1.15011 0.768708L4.50011 3.56871L7.85636 0.868709C7.92029 0.816793 7.99385 0.778023 8.07281 0.754628C8.15178 0.731233 8.23458 0.723675 8.31648 0.732387C8.39837 0.741098 8.47773 0.765909 8.55001 0.805393C8.62228 0.844876 8.68604 0.898254 8.73761 0.962459C8.78953 1.02639 8.8283 1.09995 8.85169 1.17891C8.87509 1.25787 8.88265 1.34068 8.87393 1.42257C8.86522 1.50447 8.84041 1.58383 8.80093 1.6561C8.76144 1.72838 8.70807 1.79213 8.64386 1.84371L4.89386 4.86246C4.78203 4.95438 4.64175 5.00464 4.49699 5.00464C4.35222 5.00464 4.21194 4.95438 4.10011 4.86246L0.350111 1.73746C0.286825 1.68499 0.234511 1.62055 0.196165 1.54784C0.15782 1.47512 0.134197 1.39555 0.126649 1.31369C0.119102 1.23183 0.127779 1.14928 0.152182 1.07078C0.176585 0.99228 0.216234 0.919363 0.26886 0.856208C0.327019 0.784512 0.40034 0.726591 0.483549 0.686607C0.566759 0.646622 0.657794 0.625569 0.750111 0.624958Z" fill="#4F4F4F"/>
</svg>
