<svg width="26" height="26" viewBox="0 0 26 26" fill="none" xmlns="http://www.w3.org/2000/svg">
<path fill-rule="evenodd" clip-rule="evenodd" d="M1.59754 0.460827L1.47073 0.447176C1.00925 0.429812 0.594829 0.76572 0.513887 1.24708L0.500625 1.37761C0.483755 1.8526 0.810104 2.27916 1.27777 2.36247L3.16403 2.69826L4.30719 16.7168L4.33085 16.9275C4.56085 18.5261 5.89666 19.7278 7.48765 19.7278H21.1277L21.3331 19.7211C22.8285 19.6228 24.0684 18.4588 24.2867 16.9125L25.473 8.47439L25.4935 8.28057C25.6026 6.73782 24.4153 5.39886 22.8864 5.39886H5.26528L4.97187 1.79412L4.94975 1.65149C4.8642 1.28053 4.57122 0.990578 4.19754 0.924007L1.59754 0.460827ZM7.34255 17.7898C6.72346 17.72 6.22836 17.2083 6.17548 16.5559L5.4226 7.32877H22.8862L22.9964 7.33711C23.3911 7.39751 23.6762 7.77741 23.6171 8.19807L22.4309 16.6356L22.4011 16.7864C22.2507 17.3764 21.7314 17.7979 21.1275 17.7979H7.48747L7.34255 17.7898ZM5.38557 23.7154C5.38557 22.6397 6.23267 21.7662 7.27807 21.7662C8.32334 21.7662 9.17182 22.6396 9.17182 23.7154C9.17182 24.7915 8.3232 25.6634 7.27807 25.6634C6.23281 25.6634 5.38557 24.7913 5.38557 23.7154ZM19.45 23.7154C19.45 22.6396 20.2984 21.7662 21.3437 21.7662C22.389 21.7662 23.2375 22.6396 23.2375 23.7154C23.2375 24.7915 22.3888 25.6634 21.3437 25.6634C20.2986 25.6634 19.45 24.7915 19.45 23.7154ZM20.0606 11.1191C20.0606 10.5862 19.6409 10.1542 19.1231 10.1542H15.6569L15.5297 10.163C15.0721 10.2269 14.7194 10.6306 14.7194 11.1191C14.7194 11.6521 15.1391 12.0841 15.6569 12.0841H19.1231L19.2503 12.0753C19.7079 12.0114 20.0606 11.6076 20.0606 11.1191Z" fill="#333333"/>
</svg>
