<svg width="18" height="18" viewBox="0 0 18 18" fill="none" xmlns="http://www.w3.org/2000/svg">
<path d="M11.2498 4.50001C11.2501 4.67525 11.1891 4.84508 11.0773 4.98001L7.71726 9.00001L10.9573 13.0275C11.0196 13.1042 11.0661 13.1925 11.0942 13.2873C11.1222 13.382 11.1313 13.4814 11.1208 13.5796C11.1104 13.6779 11.0806 13.7732 11.0332 13.8599C10.9859 13.9466 10.9218 14.0231 10.8448 14.085C10.768 14.1473 10.6798 14.1938 10.585 14.2219C10.4903 14.25 10.3909 14.2591 10.2926 14.2486C10.1943 14.2381 10.0991 14.2084 10.0124 14.161C9.92566 14.1136 9.84915 14.0496 9.78726 13.9725L6.16476 9.47251C6.05445 9.33831 5.99414 9.16998 5.99414 8.99626C5.99414 8.82254 6.05445 8.65421 6.16476 8.52001L9.91476 4.02001C9.97772 3.94407 10.055 3.88129 10.1423 3.83528C10.2296 3.78926 10.325 3.76091 10.4233 3.75186C10.5215 3.7428 10.6206 3.75321 10.7148 3.7825C10.809 3.81178 10.8965 3.85936 10.9723 3.92251C11.0583 3.9923 11.1278 4.08028 11.1758 4.18014C11.2238 4.27999 11.249 4.38923 11.2498 4.50001Z" fill="#3FCF5E"/>
</svg>
